<svg width="34" height="50" viewBox="0 0 34 50" fill="none" xmlns="http://www.w3.org/2000/svg">
<path d="M8.25 0C4.10788 0 0.75 3.35788 0.75 7.5C0.75 11.6421 4.10788 15 8.25 15H25.75C29.8923 15 33.25 11.6421 33.25 7.5C33.25 3.35788 29.8923 0 25.75 0H8.25Z" fill="white"/>
<path d="M25.75 17.5C21.6077 17.5 18.25 20.8577 18.25 25C18.25 29.1423 21.6077 32.5 25.75 32.5C29.8923 32.5 33.25 29.1423 33.25 25C33.25 20.8577 29.8923 17.5 25.75 17.5Z" fill="white"/>
<path d="M0.75 25C0.75 20.8577 4.10788 17.5 8.25 17.5H15.75V32.5H8.25C4.10788 32.5 0.75 29.1423 0.75 25Z" fill="white"/>
<path d="M8.25 35C4.10788 35 0.75 38.3577 0.75 42.5C0.75 46.6423 4.10788 50 8.25 50C12.3923 50 15.75 46.6423 15.75 42.5V35H8.25Z" fill="white"/>
</svg>
