<svg width="766" height="455" viewBox="0 0 766 455" fill="none" xmlns="http://www.w3.org/2000/svg">
<rect width="766" height="455" fill="#FFF2AF"/>
<mask id="mask0_163_318" style="mask-type:alpha" maskUnits="userSpaceOnUse" x="0" y="0" width="766" height="455">
<rect width="766" height="455" fill="#FFF2AF"/>
</mask>
<g mask="url(#mask0_163_318)">
<circle cx="370.5" cy="339.5" r="304.5" fill="url(#paint0_linear_163_318)"/>
<path d="M169.114 278.225C172.318 275.991 176.647 276.209 179.598 278.764L199.589 296.004L241.214 313.6C241.214 313.6 263.456 334.071 288.706 353.637L251.192 300.999C248.494 297.207 249.309 291.949 253.041 289.154C256.899 286.255 262.388 287.103 265.201 291.021C274.41 303.851 292.518 330.164 295.067 334.54C300.315 343.567 297.961 354.21 296.262 359.399C313.302 372.138 330.813 383.547 343.18 387.373L329.171 482.431C329.171 482.431 225.907 447.95 169.057 294.526L166.335 288.97C164.486 285.19 165.669 280.642 169.125 278.225H169.114Z" fill="#D46868"/>
<path d="M172.629 254.396C173.41 253.468 174.57 252.85 175.97 252.85H222.751C226.552 252.85 230.146 254.637 232.431 257.672L297.733 344.276C298.973 345.926 298.824 347.976 297.79 349.431C297.526 349.809 297.193 350.141 296.826 350.416L292.99 354.3L292.221 351.264H243.592C242.214 351.264 240.928 350.622 240.101 349.523L172.468 259.837L168.266 258.829L172.629 254.396Z" fill="#A0A0A0"/>
<path d="M239.512 355.332H290.15C293.756 355.332 295.811 351.22 293.641 348.344L228.339 261.741C226.054 258.705 222.471 256.918 218.659 256.918H171.879C168.273 256.918 166.218 261.03 168.388 263.906L236.021 353.591C236.848 354.691 238.145 355.332 239.512 355.332Z" fill="#333659"/>
<path d="M230.936 285.086L197.602 323.588" stroke="#D46868" stroke-width="16.98" stroke-linecap="round" stroke-linejoin="round"/>
<path d="M246.977 300.703L213.643 339.205" stroke="#D46868" stroke-width="16.98" stroke-linecap="round" stroke-linejoin="round"/>
<path d="M263.02 316.326L229.686 354.817" stroke="#D46868" stroke-width="16.98" stroke-linecap="round" stroke-linejoin="round"/>
<path d="M274.443 337.268L245.725 370.443" stroke="#D46868" stroke-width="16.98" stroke-linecap="round" stroke-linejoin="round"/>
<path d="M323.645 470.439H619.059V271.067C593.039 227.96 556.456 203.651 499.984 191.817C437.667 178.758 367.015 229.781 347.253 303.555L323.645 470.45V470.439Z" fill="#3CA54E"/>
<path d="M499.532 304.33L505.732 354.15V470.435H423.689C375.749 438.302 367.033 371.345 367.033 371.345L481.424 377.76L499.543 304.33H499.532Z" fill="#156836"/>
<path d="M387.593 78.5562C383.815 74.3749 384.022 56.3783 384.022 56.3783C384.022 56.3783 385.492 58.257 409.399 63.0798C433.306 67.8911 422.822 54.3965 422.822 54.3965C441.642 57.0083 468.557 62.5757 478.455 67.1808C481.315 68.3951 483.967 69.7927 486.436 71.3392C495.323 76.5286 503.832 79.7819 503.832 79.7819C503.832 79.7819 498.768 80.9275 498.263 81.168C501.191 84.3412 503.706 87.7435 505.853 91.2604C518.541 111.949 519.506 137.77 509.344 159.81L498.963 182.309C498.963 182.309 383.115 142.421 373.688 126.246C372.677 124.516 371.885 122.431 371.368 120.105C363.296 107.928 375.295 84.6849 387.582 78.5562H387.593Z" fill="black"/>
<path d="M376.01 114.375C373.541 116.494 372.048 119.519 371.888 122.761C371.256 134.846 366.87 170.335 385.495 198.207C400.043 219.972 426.281 216.856 426.281 216.856L434.296 239.366C468.204 241.898 500.85 214.405 509.496 194.919L457.583 118.007C457.583 118.007 400.916 92.9763 376.01 114.375Z" fill="#FC9C9A"/>
<path d="M426.277 216.859C426.277 216.859 449.036 215.611 457.579 203.857C452.446 218.91 434.292 239.37 434.292 239.37L426.277 216.859Z" fill="#D46868"/>
<path d="M488.274 148.839C488.274 148.839 429.724 136.352 414.188 100.531L478.272 96.6816L488.274 148.827V148.839Z" fill="black"/>
<path d="M464.229 163.246C475.663 163.246 484.932 153.999 484.932 142.592C484.932 131.185 475.663 121.938 464.229 121.938C452.795 121.938 443.525 131.185 443.525 142.592C443.525 153.999 452.795 163.246 464.229 163.246Z" fill="#FC9C9A"/>
<path d="M464.23 154.014C470.557 154.014 475.679 148.905 475.679 142.593C475.679 136.281 470.557 131.172 464.23 131.172" stroke="#D46868" stroke-width="2.33" stroke-linecap="round" stroke-linejoin="round"/>
<path d="M408.023 153.119C408.552 156.9 410.722 159.729 412.869 159.431C415.016 159.133 416.325 155.823 415.797 152.042C415.269 148.262 413.099 145.433 410.951 145.73C408.804 146.028 407.495 149.339 408.023 153.119Z" fill="black"/>
<path d="M374.102 157.852C374.63 161.632 376.398 164.519 378.052 164.29C379.705 164.061 380.612 160.807 380.084 157.027C379.556 153.247 377.788 150.36 376.134 150.589C374.48 150.818 373.573 154.071 374.102 157.852Z" fill="black"/>
<path d="M385.39 166.066C383.541 168.346 383.139 171.473 384.379 173.822C385.619 176.17 388.456 177.614 391.407 177.419" stroke="#D46868" stroke-width="2.33" stroke-linecap="round" stroke-linejoin="round"/>
<path d="M419.447 176.533C419.447 176.533 412.603 192.548 390.648 188.435" stroke="#D46868" stroke-width="2.33" stroke-linecap="round" stroke-linejoin="round"/>
<path d="M619.061 271.066C619.061 271.066 654.474 338.035 630.613 412.576C601.251 504.301 523.812 504.301 470.59 472.695C417.368 441.089 356.705 357.842 356.705 357.842L373.321 283.839C373.321 283.839 415.829 289.235 447.108 313.898C478.398 338.562 505.716 354.142 505.716 354.142L502.19 322.524L619.05 271.055L619.061 271.066Z" fill="#FC9C9A"/>
<path d="M428.185 301.71C428.185 301.71 395.333 279.28 356.717 282.247C329.939 284.297 304.804 295.719 291.897 302.523C291.84 302.546 291.794 302.58 291.736 302.603C282.837 307.472 287.706 321.15 297.742 319.626C298.27 319.546 298.821 319.443 299.407 319.328L322.131 315.479C316.24 316.476 314.748 325.159 321.43 328.344C318.032 328.642 312.6 338.39 321.959 342.663C317.182 347.635 318.1 351.965 324.129 355.322C326.678 372.757 367.028 371.337 367.028 371.337L394.885 363.066L428.196 301.698L428.185 301.71Z" fill="#FC9C9A"/>
<path d="M502.205 322.524L619.064 271.055C619.064 271.055 649.987 329.535 634.566 398.028L505.719 354.153L502.193 322.536L502.205 322.524Z" fill="#3CA54E"/>
<g style="mix-blend-mode:multiply">
<path d="M224.426 130.092H140.228C137.565 130.092 135.406 132.25 135.406 134.913V182.46C135.406 185.123 137.565 187.281 140.228 187.281H224.426C227.088 187.281 229.247 185.123 229.247 182.46V134.913C229.247 132.25 227.088 130.092 224.426 130.092Z" fill="#AEB3B9"/>
</g>
<path d="M233.211 121.305H149.013C146.35 121.305 144.191 123.463 144.191 126.126V173.673C144.191 176.335 146.35 178.494 149.013 178.494H233.211C235.873 178.494 238.032 176.335 238.032 173.673V126.126C238.032 123.463 235.873 121.305 233.211 121.305Z" fill="#FF7747"/>
<path d="M176.42 135.727H156.184C154.853 135.727 153.773 136.806 153.773 138.137V158.373C153.773 159.704 154.853 160.783 156.184 160.783H176.42C177.751 160.783 178.83 159.704 178.83 158.373V138.137C178.83 136.806 177.751 135.727 176.42 135.727Z" fill="white"/>
<path d="M158.869 141.529L164.39 152.383L178.833 128.787" stroke="#BD231E" stroke-width="4.54" stroke-linecap="round" stroke-linejoin="round"/>
<path d="M194.359 136.529H224.519" stroke="white" stroke-width="1.7" stroke-linecap="round" stroke-linejoin="round"/>
<path d="M194.359 147.387H216.077" stroke="white" stroke-width="1.7" stroke-linecap="round" stroke-linejoin="round"/>
<path d="M194.359 158.238H224.519" stroke="white" stroke-width="1.7" stroke-linecap="round" stroke-linejoin="round"/>
<path d="M233.211 121.305H149.013C146.35 121.305 144.191 123.463 144.191 126.126V173.673C144.191 176.335 146.35 178.494 149.013 178.494H233.211C235.873 178.494 238.032 176.335 238.032 173.673V126.126C238.032 123.463 235.873 121.305 233.211 121.305Z" fill="#FF7747"/>
<path d="M176.42 135.727H156.184C154.853 135.727 153.773 136.806 153.773 138.137V158.373C153.773 159.704 154.853 160.783 156.184 160.783H176.42C177.751 160.783 178.83 159.704 178.83 158.373V138.137C178.83 136.806 177.751 135.727 176.42 135.727Z" fill="white"/>
<path d="M158.869 141.529L164.39 152.383L178.833 128.787" stroke="#BD231E" stroke-width="4.54" stroke-linecap="round" stroke-linejoin="round"/>
<path d="M194.359 136.529H224.519" stroke="white" stroke-width="1.7" stroke-linecap="round" stroke-linejoin="round"/>
<path d="M194.359 147.387H216.077" stroke="white" stroke-width="1.7" stroke-linecap="round" stroke-linejoin="round"/>
<path d="M194.359 158.238H224.519" stroke="white" stroke-width="1.7" stroke-linecap="round" stroke-linejoin="round"/>
<g style="mix-blend-mode:multiply">
<path d="M238.03 163.248V173.663C238.03 176.335 235.87 178.485 233.209 178.485H211.961C214.424 169.322 222.794 162.58 232.729 162.58C234.565 162.58 236.339 162.81 238.041 163.238L238.03 163.248Z" fill="#B9BEC2"/>
</g>
<path d="M263.57 181.343C263.57 193.219 242.061 222.158 242.061 222.158C242.061 222.158 220.553 193.229 220.553 181.343C220.553 169.456 230.185 159.834 242.061 159.834C253.938 159.834 263.57 169.466 263.57 181.343Z" fill="#FEBB05"/>
<path d="M242.061 159.834C230.185 159.834 220.553 169.466 220.553 181.343C220.553 185.736 223.496 192.457 227.2 199.188L258.686 167.703C254.741 162.902 248.761 159.834 242.061 159.834Z" fill="#F4EA94"/>
<path d="M242.063 193.751C248.766 193.751 254.2 188.317 254.2 181.614C254.2 174.911 248.766 169.477 242.063 169.477C235.36 169.477 229.926 174.911 229.926 181.614C229.926 188.317 235.36 193.751 242.063 193.751Z" stroke="white" stroke-width="1.24" stroke-linecap="round" stroke-linejoin="round"/>
</g>
<defs>
<linearGradient id="paint0_linear_163_318" x1="370.5" y1="35" x2="370.5" y2="644" gradientUnits="userSpaceOnUse">
<stop stop-color="#FFF9DC"/>
<stop offset="1" stop-color="#FFDFAF"/>
</linearGradient>
</defs>
</svg>
