<svg width="1920" height="1080" viewBox="0 0 1920 1080" fill="none" xmlns="http://www.w3.org/2000/svg">
<rect width="1920" height="1080" fill="#FFF2AF"/>
<mask id="mask0_185_134" style="mask-type:alpha" maskUnits="userSpaceOnUse" x="0" y="0" width="1920" height="1080">
<rect width="1920" height="1080" fill="#D9D9D9"/>
</mask>
<g mask="url(#mask0_185_134)">
<circle cx="1644.35" cy="875.451" r="810.15" fill="url(#paint0_linear_185_134)"/>
<path d="M1060.34 722.029C1067.2 717.245 1076.47 717.711 1082.79 723.183L1125.61 760.106L1214.77 797.79C1214.77 797.79 1262.41 841.632 1316.5 883.536L1236.14 770.803C1230.36 762.682 1232.11 751.421 1240.1 745.435C1248.37 739.228 1260.12 741.043 1266.15 749.434C1285.88 776.912 1324.66 833.266 1330.12 842.638C1341.36 861.971 1336.32 884.763 1332.68 895.876C1369.18 923.158 1406.69 947.594 1433.18 955.788L1403.17 1159.37C1403.17 1159.37 1181.98 1085.52 1060.21 756.941L1054.38 745.042C1050.42 736.946 1052.96 727.206 1060.36 722.029H1060.34Z" fill="#D46868"/>
<path d="M1067.86 671C1069.53 669.012 1072.02 667.688 1075.02 667.688H1175.22C1183.36 667.688 1191.06 671.515 1195.96 678.016L1335.83 863.492C1338.49 867.025 1338.17 871.417 1335.95 874.532C1335.39 875.342 1334.67 876.054 1333.89 876.642L1325.67 884.959L1324.02 878.458H1219.86C1216.91 878.458 1214.16 877.084 1212.38 874.729L1067.52 682.653L1058.52 680.494L1067.86 671Z" fill="#A0A0A0"/>
<path d="M1211.12 887.167H1319.59C1327.31 887.167 1331.72 878.359 1327.07 872.201L1187.19 686.725C1182.3 680.224 1174.63 676.396 1166.46 676.396H1066.26C1058.53 676.396 1054.13 685.204 1058.78 691.362L1203.65 883.438C1205.42 885.793 1208.2 887.167 1211.12 887.167Z" fill="#333659"/>
<path d="M1192.76 736.727L1121.36 819.185" stroke="#D46868" stroke-width="56.034" stroke-linecap="round" stroke-linejoin="round"/>
<path d="M1227.12 770.168L1155.71 852.626" stroke="#D46868" stroke-width="56.034" stroke-linecap="round" stroke-linejoin="round"/>
<path d="M1261.47 803.633L1190.07 886.067" stroke="#D46868" stroke-width="56.034" stroke-linecap="round" stroke-linejoin="round"/>
<path d="M1285.95 848.48L1224.44 919.53" stroke="#D46868" stroke-width="56.034" stroke-linecap="round" stroke-linejoin="round"/>
<path d="M1391.34 1133.69H2024.11V706.7C1968.37 614.379 1890.01 562.318 1769.05 536.975C1635.57 509.006 1484.24 618.28 1441.91 776.278L1391.34 1133.71V1133.69Z" fill="#3CA54E"/>
<path d="M1768.07 777.945L1781.35 884.643V1133.69H1605.62C1502.93 1064.87 1484.27 921.468 1484.27 921.468L1729.29 935.207L1768.1 777.945H1768.07Z" fill="#156836"/>
<path d="M1528.31 294.408C1520.22 285.453 1520.66 246.91 1520.66 246.91C1520.66 246.91 1523.81 250.934 1575.02 261.263C1626.23 271.567 1603.77 242.666 1603.77 242.666C1644.08 248.26 1701.73 260.183 1722.94 270.046C1729.06 272.646 1734.74 275.64 1740.03 278.952C1759.07 290.065 1777.29 297.033 1777.29 297.033C1777.29 297.033 1766.44 299.486 1765.36 300.002C1771.63 306.797 1777.02 314.084 1781.62 321.616C1808.8 365.924 1810.86 421.223 1789.1 468.427L1766.86 516.611C1766.86 516.611 1518.72 431.184 1498.53 396.542C1496.36 392.838 1494.66 388.373 1493.56 383.392C1476.27 357.313 1501.97 307.534 1528.29 294.408H1528.31Z" fill="black"/>
<path d="M1503.5 371.123C1498.21 375.661 1495.01 382.138 1494.67 389.081C1493.32 414.965 1483.92 490.971 1523.81 550.661C1554.98 597.276 1611.18 590.603 1611.18 590.603L1628.34 638.812C1700.97 644.234 1770.9 585.352 1789.42 543.62L1678.22 378.9C1678.22 378.9 1556.85 325.293 1503.5 371.123Z" fill="#FC9C9A"/>
<path d="M1611.17 590.604C1611.17 590.604 1659.92 587.93 1678.22 562.758C1667.22 594.995 1628.34 638.813 1628.34 638.813L1611.17 590.604Z" fill="#D46868"/>
<path d="M1743.96 444.925C1743.96 444.925 1618.55 418.183 1585.27 341.466L1722.54 333.223L1743.96 444.901V444.925Z" fill="black"/>
<path d="M1692.46 475.785C1716.95 475.785 1736.81 455.981 1736.81 431.551C1736.81 407.121 1716.95 387.316 1692.46 387.316C1667.97 387.316 1648.12 407.121 1648.12 431.551C1648.12 455.981 1667.97 475.785 1692.46 475.785Z" fill="#FC9C9A"/>
<path d="M1692.46 456.01C1706.02 456.01 1716.99 445.068 1716.99 431.55C1716.99 418.032 1706.02 407.09 1692.46 407.09" stroke="#D46868" stroke-width="7.689" stroke-linecap="round" stroke-linejoin="round"/>
<path d="M1572.07 454.097C1573.2 462.193 1577.85 468.253 1582.45 467.615C1587.05 466.977 1589.85 459.887 1588.72 451.791C1587.59 443.695 1582.94 437.635 1578.34 438.273C1573.74 438.911 1570.94 446.001 1572.07 454.097Z" fill="black"/>
<path d="M1499.41 464.23C1500.54 472.326 1504.33 478.509 1507.87 478.018C1511.41 477.528 1513.36 470.56 1512.23 462.464C1511.09 454.368 1507.31 448.185 1503.77 448.676C1500.22 449.166 1498.28 456.134 1499.41 464.23Z" fill="black"/>
<path d="M1523.59 481.824C1519.63 486.706 1518.77 493.404 1521.43 498.434C1524.08 503.463 1530.16 506.554 1536.48 506.137" stroke="#D46868" stroke-width="7.689" stroke-linecap="round" stroke-linejoin="round"/>
<path d="M1596.54 504.244C1596.54 504.244 1581.88 538.542 1534.85 529.735" stroke="#D46868" stroke-width="7.689" stroke-linecap="round" stroke-linejoin="round"/>
<path d="M2024.11 706.7C2024.11 706.7 2099.96 850.125 2048.85 1009.77C1985.96 1206.21 1820.09 1206.21 1706.09 1138.52C1592.09 1070.83 1462.15 892.544 1462.15 892.544L1497.74 734.056C1497.74 734.056 1588.79 745.611 1655.79 798.432C1722.81 851.254 1781.32 884.62 1781.32 884.62L1773.77 816.906L2024.08 706.676L2024.11 706.7Z" fill="#FC9C9A"/>
<path d="M1615.26 772.328C1615.26 772.328 1544.89 724.291 1462.18 730.645C1404.82 735.037 1350.98 759.497 1323.33 774.07C1323.21 774.119 1323.11 774.193 1322.99 774.242C1303.93 784.669 1314.36 813.962 1335.85 810.699C1336.98 810.528 1338.16 810.307 1339.42 810.062L1388.09 801.818C1375.48 803.953 1372.28 822.549 1386.59 829.37C1379.31 830.008 1367.68 850.886 1387.72 860.037C1377.49 870.685 1379.46 879.959 1392.37 887.147C1397.83 924.487 1484.26 921.445 1484.26 921.445L1543.93 903.732L1615.28 772.304L1615.26 772.328Z" fill="#FC9C9A"/>
<path d="M1773.8 816.904L2024.11 706.674C2024.11 706.674 2090.34 831.919 2057.31 978.607L1781.32 884.642L1773.77 816.929L1773.8 816.904Z" fill="#3CA54E"/>
<g style="mix-blend-mode:multiply">
<path d="M817.083 693.148H588.858C581.64 693.148 575.789 698.999 575.789 706.216V835.076C575.789 842.293 581.64 848.143 588.858 848.143H817.083C824.301 848.143 830.152 842.293 830.152 835.076V706.216C830.152 698.999 824.301 693.148 817.083 693.148Z" fill="#AEB3B9"/>
</g>
<path d="M840.9 669.332H612.674C605.457 669.332 599.605 675.182 599.605 682.399V811.26C599.605 818.476 605.457 824.327 612.674 824.327H840.9C848.117 824.327 853.968 818.476 853.968 811.26V682.399C853.968 675.182 848.117 669.332 840.9 669.332Z" fill="#FF7747"/>
<path d="M686.962 708.42H632.113C628.504 708.42 625.578 711.345 625.578 714.953V769.796C625.578 773.404 628.504 776.329 632.113 776.329H686.962C690.571 776.329 693.497 773.404 693.497 769.796V714.953C693.497 711.345 690.571 708.42 686.962 708.42Z" fill="white"/>
<path d="M639.383 724.146L654.347 753.561L693.497 689.611" stroke="#BD231E" stroke-width="14.982" stroke-linecap="round" stroke-linejoin="round"/>
<path d="M735.59 710.596H817.341" stroke="white" stroke-width="5.61" stroke-linecap="round" stroke-linejoin="round"/>
<path d="M735.59 740.016H794.457" stroke="white" stroke-width="5.61" stroke-linecap="round" stroke-linejoin="round"/>
<path d="M735.59 769.43H817.341" stroke="white" stroke-width="5.61" stroke-linecap="round" stroke-linejoin="round"/>
<path d="M840.9 669.332H612.674C605.457 669.332 599.605 675.182 599.605 682.399V811.26C599.605 818.476 605.457 824.327 612.674 824.327H840.9C848.117 824.327 853.968 818.476 853.968 811.26V682.399C853.968 675.182 848.117 669.332 840.9 669.332Z" fill="#FF7747"/>
<path d="M686.962 708.42H632.113C628.504 708.42 625.578 711.345 625.578 714.953V769.796C625.578 773.404 628.504 776.329 632.113 776.329H686.962C690.571 776.329 693.497 773.404 693.497 769.796V714.953C693.497 711.345 690.571 708.42 686.962 708.42Z" fill="white"/>
<path d="M639.383 724.146L654.347 753.561L693.497 689.611" stroke="#BD231E" stroke-width="14.982" stroke-linecap="round" stroke-linejoin="round"/>
<path d="M735.59 710.596H817.341" stroke="white" stroke-width="5.61" stroke-linecap="round" stroke-linejoin="round"/>
<path d="M735.59 740.016H794.457" stroke="white" stroke-width="5.61" stroke-linecap="round" stroke-linejoin="round"/>
<path d="M735.59 769.43H817.341" stroke="white" stroke-width="5.61" stroke-linecap="round" stroke-linejoin="round"/>
<g style="mix-blend-mode:multiply">
<path d="M853.963 783.004V811.231C853.963 818.471 848.108 824.298 840.895 824.298H783.301C789.977 799.465 812.663 781.193 839.593 781.193C844.572 781.193 849.381 781.816 853.992 782.975L853.963 783.004Z" fill="#B9BEC2"/>
</g>
<path d="M923.184 832.049C923.184 864.235 864.883 942.666 864.883 942.666C864.883 942.666 806.582 864.264 806.582 832.049C806.582 799.833 832.692 773.756 864.883 773.756C897.074 773.756 923.184 799.862 923.184 832.049Z" fill="#FEBB05"/>
<path d="M864.883 773.756C832.692 773.756 806.582 799.862 806.582 832.049C806.582 843.956 814.559 862.171 824.601 880.414L909.945 795.082C899.253 782.071 883.044 773.756 864.883 773.756Z" fill="#F4EA94"/>
<path d="M864.891 865.677C883.06 865.677 897.789 850.949 897.789 832.783C897.789 814.616 883.06 799.889 864.891 799.889C846.721 799.889 831.992 814.616 831.992 832.783C831.992 850.949 846.721 865.677 864.891 865.677Z" stroke="white" stroke-width="4.092" stroke-linecap="round" stroke-linejoin="round"/>
</g>
<defs>
<linearGradient id="paint0_linear_185_134" x1="1644.35" y1="65.3008" x2="1644.35" y2="1685.6" gradientUnits="userSpaceOnUse">
<stop stop-color="#FFF9DC"/>
<stop offset="1" stop-color="#FFDFAF"/>
</linearGradient>
</defs>
</svg>
