<svg width="42" height="45" viewBox="0 0 42 45" fill="none" xmlns="http://www.w3.org/2000/svg">
<path fill-rule="evenodd" clip-rule="evenodd" d="M33.9392 29.7124L38.2346 27.3261C42.0208 25.2227 42.0208 19.7774 38.2346 17.674L33.939 15.2875L31.79 17.4366L31.7565 17.4694L26.507 22.5L31.7565 27.5306L31.79 27.5635L33.9392 29.7124ZM23.3155 25.5588L28.6836 30.7031L29.9238 31.9433L8.61801 43.7797C7.09552 44.6255 5.42884 44.6659 3.99791 44.1245L5.2734 42.8489L23.3155 25.5588ZM23.3155 19.4413L28.6836 14.2969L29.9238 13.0568L8.61801 1.22027C7.09554 0.37446 5.42887 0.334069 3.99793 0.875553L5.2734 2.15102L23.3155 19.4413ZM0.82257 3.94631L2.16698 5.29072L2.20055 5.32358L20.1238 22.5L2.20055 39.6764L2.16698 39.7093L0.82257 41.0538C0.561898 40.4158 0.416016 39.7098 0.416016 38.9536V6.04634C0.416016 5.29028 0.561898 4.58416 0.82257 3.94631Z" fill="white"/>
</svg>
