<svg width="35" height="35" viewBox="0 0 35 35" fill="none" xmlns="http://www.w3.org/2000/svg">
<circle cx="17.5" cy="17.5" r="17.5" fill="white"/>
<path d="M19.4914 10.2414C19.4914 9.41772 18.8237 8.75 18 8.75C17.1763 8.75 16.5086 9.41772 16.5086 10.2414V16.5086H10.2414C9.41772 16.5086 8.75 17.1763 8.75 18C8.75 18.8237 9.41772 19.4914 10.2414 19.4914H16.5086V25.7586C16.5086 26.5823 17.1763 27.25 18 27.25C18.8237 27.25 19.4914 26.5823 19.4914 25.7586V19.4914H25.7586C26.5823 19.4914 27.25 18.8237 27.25 18C27.25 17.1763 26.5823 16.5086 25.7586 16.5086H19.4914V10.2414Z" fill="black" stroke="black" stroke-width="0.5"/>
</svg>
