<svg width="501" height="409" viewBox="0 0 501 409" fill="none" xmlns="http://www.w3.org/2000/svg">
<ellipse cx="264.61" cy="193.259" rx="214.441" ry="99.6812" transform="rotate(29.84 264.61 193.259)" fill="#A3FF5E"/>
<path d="M449.621 249.974C450.614 246.558 450.95 244.659 450.631 244.277C450.312 243.885 450.445 243.303 451.023 242.524C451.602 241.745 451.674 241.017 451.246 240.318L450.609 239.278L451.36 239.219C451.86 239.182 452.334 238.364 452.781 236.766C453.006 235.969 453.228 235.171 453.453 234.374L452.086 234.168L450.715 233.96L452.197 233.067L453.674 232.172L453.033 231.131C452.604 230.433 452.622 229.547 453.086 228.472C453.551 227.397 453.638 225.512 453.348 222.817C453.051 220.132 453.096 218.622 453.484 218.275L454.07 217.764L453.318 217.824L452.568 217.88C452.806 217.603 453.05 217.324 453.29 217.043C453.772 216.487 453.645 215.663 452.899 214.577C452.154 213.491 451.812 211.809 451.816 209.509C451.819 207.208 451.483 205.789 450.758 205.206L449.669 204.356L450.564 203.974L451.454 203.594L449.637 203.573L447.818 203.556C448.194 202.95 448.58 202.352 448.956 201.746C449.719 200.542 449.993 199.641 449.767 199.034C449.541 198.427 448.705 197.551 447.248 196.412C445.791 195.273 445.304 194.169 445.77 193.092C446.235 192.014 445.515 190.3 443.623 187.949C441.731 185.598 440.818 184.055 440.892 183.322C440.966 182.59 440.595 182.045 439.771 181.689C438.948 181.334 438.42 180.591 438.183 179.47C438.041 178.877 437.785 178.323 437.432 177.841C437.079 177.358 436.635 176.956 436.125 176.658C434.988 175.914 433.985 174.586 433.115 172.675C432.233 170.766 431.346 169.743 430.434 169.594C429.521 169.445 428.942 168.82 428.713 167.702C428.484 166.584 427.947 166.093 427.145 166.26L425.951 166.508L426.787 164.572L424.441 166.621L422.101 168.676C422.576 167.862 423.049 167.043 423.526 166.225C424.473 164.592 424.781 163.321 424.439 162.409C424.098 161.497 423.366 160.667 422.239 159.925L420.54 158.807C420.551 159.066 420.559 159.324 420.568 159.588L420.594 160.363L419.37 159.834L420.186 157.947L418.207 157.476L416.226 157L417.062 155.064L415.557 155.178C414.554 155.259 413.875 154.581 413.525 153.151C413.174 151.721 412.078 150.603 410.235 149.807C408.392 149.011 407.105 148.07 406.356 146.982C405.607 145.894 404.795 145.544 403.905 145.923C403.458 146.114 403.014 146.307 402.568 146.494C402.653 146.021 402.731 145.546 402.822 145.071C402.985 144.122 402.606 143.319 401.675 142.653C400.744 141.986 400.091 141.838 399.696 142.182C399.301 142.526 398.695 142.259 397.861 141.389L396.602 140.076C396.47 140.658 396.341 141.242 396.206 141.828C396.072 142.414 395.945 142.993 395.814 143.581L395.256 143.34C394.848 143.164 394.715 142.342 394.866 140.874L395.086 138.671L393.269 138.651L391.45 138.634C391.487 138.265 391.527 137.898 391.561 137.533C391.637 136.796 391.111 136.06 389.973 135.313C388.834 134.566 388.096 134.373 387.682 134.708C387.493 134.881 387.293 135.049 387.104 135.222L386.906 133.988C386.777 133.168 386.148 132.382 385.01 131.636C383.87 130.89 382.558 130.455 381.192 130.371L379.069 130.222C379.109 129.855 379.146 129.486 379.184 129.123C379.26 128.387 378.122 127.64 375.782 126.884L372.266 125.754L372.848 125.242C373.047 125.068 373.24 124.896 373.436 124.727L372.237 124.977L371.039 125.224C371.023 124.964 371.012 124.705 371.006 124.446C370.991 123.923 370.165 123.31 368.527 122.606C366.892 121.899 365.878 121.721 365.485 122.06L364.899 122.571L364.402 121.208C364.068 120.299 362.93 119.553 360.998 118.973C358.947 118.326 357.059 117.25 355.448 115.811C353.676 114.276 349.931 112.275 344.213 109.808C338.495 107.34 335.187 106.294 334.288 106.668C333.397 107.052 332.732 106.89 332.306 106.196L331.664 105.155C331.375 105.539 331.089 105.925 330.798 106.314C330.507 106.702 330.215 107.105 329.947 107.47L329.89 105.912C329.854 104.874 329.528 104.222 328.909 103.955L327.986 103.556L327.428 104.848L326.481 103.67C325.851 102.888 325.28 102.517 324.78 102.555C324.279 102.594 323.99 102.978 323.914 103.714C323.879 104.079 323.839 104.446 323.803 104.815L322.716 103.961C321.993 103.394 321.722 102.892 321.907 102.463L322.185 101.819L316.972 99.5663C313.5 98.0658 311.26 97.353 310.254 97.4277C309.208 97.4941 308.185 97.1878 307.356 96.5599C306.422 95.9033 305.761 95.7459 305.373 96.0878C304.985 96.4296 303.712 96.0079 301.555 94.8227C299.71 93.7469 297.693 93.0052 295.586 92.6284C293.767 92.3519 292.613 92.4941 292.124 93.0551C291.642 93.6111 291.198 93.8038 290.786 93.6259L290.175 93.3616C290.367 93.1902 290.566 93.0163 290.762 92.8465L291.345 92.3338L286.299 90.5385C283.124 89.3904 279.861 88.4932 276.539 87.8545C273.396 87.2659 271.734 87.1822 271.545 87.6197L271.267 88.2637L265.135 85.6141L264.296 87.5543L263.037 86.2413L261.777 84.9324L261.218 86.2245L260.435 85.5015L259.656 84.7802L259.097 86.0723L257.882 85.547C257.066 85.1946 256.059 85.274 254.873 85.7803C254.278 86.0375 253.681 86.289 253.087 86.5421L253.924 84.606L249.35 83.399C246.303 82.5917 244.425 82.1636 243.719 82.1147L242.66 82.0415L242.713 83.5979L242.768 85.1502L241.648 83.5173C240.901 82.4287 240.185 82.1195 239.501 82.5898C239.164 82.8201 238.778 82.9574 238.381 82.9883C237.984 83.0191 237.59 82.9424 237.238 82.7657L237.883 83.8086L238.524 84.8499L239.107 84.3372C239.303 84.1674 239.5 83.9976 239.694 83.8221C239.611 84.3004 239.525 84.773 239.444 85.2472C239.362 85.7214 239.275 86.1981 239.193 86.6723L237.214 86.2018L235.232 85.7296C235.568 85.2358 235.901 84.7403 236.239 84.2424C236.578 83.7445 236.909 83.2531 237.243 82.7535C236.428 82.4011 235.778 82.5 235.286 83.0567L234.56 83.8918L234.059 82.5264C233.952 82.1446 233.771 81.7919 233.527 81.4891C233.283 81.1863 232.981 80.9397 232.638 80.7638L231.715 80.3649L231.437 81.0089C231.344 81.2236 231.251 81.4382 231.157 81.657L230.069 80.8027C229.343 80.2359 227.977 80.0283 225.969 80.18C223.962 80.3317 222.677 81.0583 222.115 82.3599L221.278 84.296L220.055 83.7674L221.73 79.8911L219.747 79.4189C218.505 79.0941 217.181 79.1959 215.969 79.7093C215.383 79.961 214.759 80.0875 214.133 80.081C213.508 80.0745 212.895 79.9352 212.333 79.6716L210.537 78.8954L209.978 80.1875L209.195 79.4645C208.677 78.9874 207.265 78.8884 204.959 79.1675C202.653 79.4465 201.24 79.347 200.719 78.8688C200.522 78.6551 200.285 78.4862 200.02 78.372C199.756 78.2577 199.47 78.2006 199.18 78.2039L198.424 78.262L198.454 79.039L198.482 79.8201L193.785 78.9202C190.642 78.3316 188.824 78.3121 188.331 78.8617C187.838 79.4112 187.232 79.4056 186.512 78.8448C186.203 78.5761 185.838 78.3829 185.443 78.2787C185.048 78.1745 184.633 78.1617 184.226 78.2413C183.881 78.2848 183.551 78.4206 183.267 78.6351C182.983 78.8497 182.755 79.1355 182.606 79.4642L182.186 80.4364L181.099 79.5821C180.376 79.0164 179.21 78.8958 177.603 79.2203C175.996 79.5449 174.937 79.4703 174.426 78.9966C173.904 78.5146 172.639 78.3527 170.632 78.5109C168.625 78.6691 167.332 79.1327 166.753 79.9016C166.468 80.2878 166.179 80.6723 165.891 81.0624L166.003 79.9573C166.042 79.5941 166.078 79.2252 166.114 78.8563C165.67 79.049 165.222 79.2401 164.776 79.4271C163.885 79.8109 163.176 79.7596 162.657 79.2806C162.138 78.8016 161.181 78.7676 159.785 79.1882C158.388 79.6087 157.303 79.6491 156.468 79.2884C155.633 78.9277 153.948 79.2237 151.362 80.1489C148.775 81.0741 146.975 81.3202 145.952 80.878L144.413 80.2131L143.576 82.1493L142.795 81.432L142.016 80.7107C141.772 80.9899 141.53 81.265 141.29 81.5458C141.05 81.8266 140.806 82.1058 140.564 82.3809L140.09 81.7966L139.615 81.2066L139.336 81.8506C139.148 82.2854 138.247 82.4069 136.631 82.2152C135.016 82.0235 133.881 82.6837 133.228 84.1959L132.25 86.4601L131.065 85.9482C131.25 85.5188 131.438 85.0854 131.623 84.6561L132.181 83.3639L131.258 82.965C130.646 82.7007 129.532 82.7335 127.941 83.0653C126.351 83.3971 125.402 83.8909 125.126 84.5309C124.849 85.1709 124.045 85.3424 122.725 85.0268C121.405 84.7112 120.409 85.0501 119.74 86.0394C119.407 86.5349 119.072 87.0247 118.736 87.5283L117.787 86.3541L116.84 85.1757L115.973 86.3348C115.395 87.1103 114.596 87.2761 113.576 86.8324C112.557 86.3886 111.404 86.5314 110.118 87.2607C108.72 88.0125 107.177 88.3996 105.627 88.3872C103.908 88.417 102.226 89.0449 100.853 90.1698C99.384 91.3231 98.3429 91.7673 97.7299 91.5024C97.1144 91.2365 96.5193 91.4937 95.9444 92.2643C95.3695 93.0349 94.3739 93.3738 92.9594 93.2769C92.2658 93.2253 91.564 93.3222 90.8974 93.5617C90.2309 93.8012 89.6138 94.1782 89.0844 94.6693C88.499 95.179 87.9136 95.6919 87.3284 96.2081L86.8529 95.6181C86.5378 95.2273 85.7823 95.2854 84.5957 95.7917C83.3546 96.3384 82.2448 97.1764 81.3566 98.2375C80.3867 99.3517 79.6006 99.7764 78.9812 99.5087L78.0617 99.1115C78.0256 99.4804 77.9856 99.8476 77.9513 100.212C77.9169 100.577 77.8751 100.949 77.8408 101.314L77.3635 100.728L76.8918 100.139C76.3151 100.914 75.7364 101.683 75.1597 102.458L73.4332 104.773L72.652 104.056L71.8725 103.335C71.4444 104.044 71.0163 104.753 70.5882 105.462C69.7345 106.881 69.1025 107.502 68.6921 107.325L68.0728 107.057L68.4083 107.971L68.7417 108.88L67.1085 109.289C66.009 109.583 65.3045 109.533 64.9856 109.141L64.514 108.553C63.9262 109.068 63.3401 109.579 62.7562 110.096C61.5841 111.118 60.9122 112.109 60.7406 113.07C60.5689 114.031 59.9467 114.911 58.8741 115.71C57.797 116.526 56.5041 118.395 54.9954 121.316C53.4868 124.237 52.5293 125.611 52.1229 125.439L51.5227 125.18L51.9944 125.768C52.3152 126.16 51.7667 127.711 50.3491 130.421C48.9315 133.132 48.3929 134.942 48.7333 135.852C48.9046 136.259 48.9316 136.72 48.8096 137.157C48.6875 137.593 48.4241 137.978 48.0645 138.245C47.2808 138.932 46.9899 140.729 47.1917 143.636C47.3935 146.543 47.2064 148.385 46.6305 149.161C46.0538 149.936 46.0472 151.082 46.6029 152.596C47.1686 154.224 47.2848 155.998 46.9386 157.725C46.6131 159.601 46.7879 161.513 47.4439 163.255C48.1108 165.071 48.2571 166.416 47.8828 167.29L47.3245 168.582L48.244 168.979C48.8596 169.245 49.3621 170.611 49.7515 173.077C50.1409 175.543 50.5869 176.758 51.0894 176.722C51.5917 176.679 52.1298 177.677 52.7035 179.717C53.2773 181.756 54.1889 183.298 55.4383 184.344C56.6839 185.392 57.9198 187.586 59.1459 190.926C60.372 194.266 61.3886 195.851 62.1957 195.681C62.9991 195.512 63.7917 196.495 64.5734 198.631C65.3968 200.804 66.9603 202.569 68.9776 203.6C71.1354 204.787 72.1206 205.593 71.9333 206.026L71.655 206.67L72.4088 206.616L73.1606 206.556C72.9223 206.833 72.6784 207.112 72.4384 207.393L71.7123 208.228L73.2178 208.114L74.7251 207.996L74.3068 208.964C74.0268 209.613 74.6576 210.396 76.1992 211.315C77.773 212.26 79.0738 213.612 79.9793 215.246C80.9356 216.933 82.4918 218.154 84.33 218.659L87.2284 219.527C86.9884 219.808 86.7445 220.087 86.5062 220.364C86.268 220.641 86.0223 220.924 85.7802 221.199L90.5492 223.644C93.7271 225.27 95.38 226.496 95.5078 227.32C95.6356 228.144 97.3158 229.891 100.548 232.56C103.762 235.23 105.928 236.677 107.046 236.9C108.164 237.124 109.851 238.231 112.107 240.221C114.219 242.127 116.68 243.58 119.357 244.502L123.174 245.767L122.896 246.411C122.709 246.845 123.082 247.386 124.017 248.044C124.951 248.703 125.605 248.86 125.994 248.519L126.582 248.004L127.391 249.502C127.995 250.563 128.931 251.372 130.05 251.8L131.889 252.595L132.448 251.303L133.091 252.35C133.517 253.043 134.384 253.288 135.682 253.084L137.639 252.781L137.22 253.749C137.083 254.083 137.031 254.444 137.069 254.798C137.108 255.152 137.235 255.486 137.44 255.767C137.868 256.466 138.795 257.121 140.238 257.745C141.68 258.368 142.683 258.541 143.28 258.29L144.17 257.91L144.199 258.687C144.219 259.205 144.795 259.837 145.928 260.583C147.062 261.328 147.804 261.523 148.215 261.186L148.801 260.675L149.61 262.174C150.145 263.174 150.861 263.483 151.756 263.101L153.094 262.53L153.287 263.763C153.421 264.585 155.063 265.549 158.226 266.661L162.963 268.323L162.405 269.615L166.071 271.199C168.526 272.26 169.948 272.618 170.337 272.273L170.923 271.762L170.365 273.054L174.658 274.909C177.521 276.146 179.352 276.681 180.151 276.514C180.951 276.346 181.464 276.568 181.69 277.179L182.024 278.087C182.109 277.614 182.191 277.14 182.276 276.668C182.362 276.195 182.445 275.717 182.527 275.242L183.731 275.763L183.313 276.731C183.172 277.019 183.131 277.346 183.197 277.654C183.263 277.962 183.432 278.233 183.674 278.42C184.193 278.899 184.901 278.95 185.793 278.567L187.134 277.998C187.094 278.365 187.06 278.73 187.02 279.097C186.943 279.833 188.44 280.862 191.511 282.186C194.582 283.51 196.822 284.221 198.231 284.321C199.642 284.421 201.426 285.065 203.582 286.253C205.738 287.441 207.309 287.735 208.296 287.136C208.789 286.839 209.282 286.543 209.773 286.241C209.737 286.61 209.697 286.977 209.663 287.342C209.628 287.707 209.587 288.078 209.551 288.447L210.89 287.872L212.228 287.301L212.256 288.083C212.273 288.599 213.206 289.257 215.055 290.056C216.904 290.855 218.07 290.976 218.551 290.418C218.795 290.139 219.035 289.858 219.277 289.583C219.284 289.841 219.296 290.1 219.307 290.36C219.324 290.877 219.844 291.356 220.867 291.799C221.891 292.241 222.596 292.291 222.985 291.949C223.373 291.607 224.445 291.943 226.202 292.955C227.949 293.964 229.061 294.19 229.558 293.641C230.056 293.091 230.839 292.916 231.957 293.139C233.075 293.362 233.592 293.845 233.516 294.582L233.406 295.683L234.884 294.788L236.361 293.893L236.697 294.807C236.847 295.146 237.063 295.448 237.331 295.695C237.599 295.942 237.914 296.129 238.257 296.246L239.485 296.776L239.455 295.999C239.45 295.737 239.439 295.477 239.427 295.218L241.13 296.338L242.831 297.453L243.667 295.517L245.228 296.955C246.27 297.918 247.284 298.101 248.269 297.505L249.746 296.61L249.772 297.385C249.789 297.907 250.723 298.565 252.57 299.363C253.886 299.986 255.269 300.455 256.696 300.761C257.604 300.899 258.203 300.643 258.481 299.999L258.899 299.031L259.097 300.265C259.227 301.084 260.406 301.722 262.635 302.178C264.863 302.635 266.075 302.647 266.271 302.216L266.551 301.568L267.192 302.609C267.616 303.307 268.379 303.507 269.473 303.215C270.567 302.923 272.54 303.132 275.39 303.849C278.239 304.566 279.748 304.708 279.934 304.279L280.214 303.631L281.613 304.62C282.654 305.315 283.865 305.705 285.123 305.752C286.534 305.852 287.335 305.687 287.524 305.256L287.807 304.6L290.262 305.66C291.73 306.335 293.344 306.639 294.973 306.547C296.477 306.428 297.476 306.09 297.958 305.535C298.441 304.979 299.247 305.067 300.384 305.818C301.52 306.569 302.474 307.995 303.254 310.12C304.035 312.245 304.993 313.683 306.124 314.427C307.254 315.17 307.641 315.976 307.266 316.843C306.892 317.71 307.029 318.788 307.689 320.092C308.349 321.396 308.962 321.921 309.557 321.664L310.447 321.284C310.415 321.654 310.38 322.019 310.34 322.387L310.23 323.488L311.12 323.108L312.015 322.726C312.179 323.181 312.347 323.638 312.517 324.091C312.852 325.005 313.267 325.439 313.775 325.404L314.527 325.344L313.079 327.016C312.112 328.133 312.047 329.127 312.882 329.998C313.727 330.887 314.247 332.057 314.36 333.318C314.509 334.664 315.56 335.884 317.513 336.978L320.451 338.632L319.281 339.66C318.898 339.975 318.61 340.398 318.455 340.875C318.299 341.351 318.283 341.86 318.408 342.335C318.647 343.457 319.348 344.653 320.511 345.921C321.666 347.189 322.256 348.338 322.296 349.375C322.337 350.411 323.08 351.501 324.536 352.645C325.991 353.788 326.583 354.933 326.322 356.098C326.06 357.264 326.456 358.324 327.494 359.282C328.531 360.24 329.016 361.093 328.94 361.83C328.864 362.566 329.341 363.152 330.361 363.592L331.9 364.257L331.482 365.225C331.202 365.873 331.392 366.849 332.044 368.15C332.696 369.451 333.417 370.022 334.216 369.853L335.418 369.608C335.178 369.889 334.936 370.164 334.688 370.441C334.462 370.666 334.304 370.954 334.235 371.267C334.166 371.58 334.188 371.904 334.3 372.196C334.522 372.802 335.149 373.327 336.168 373.768C337.188 374.208 337.618 374.904 337.449 375.854C337.28 376.805 337.502 377.411 338.122 377.678C338.407 377.785 338.644 377.992 338.791 378.266C338.938 378.539 338.986 378.861 338.927 379.175C338.856 379.909 339.707 381.3 341.496 383.352C343.285 385.403 344.077 386.635 343.889 387.068L343.611 387.712L344.531 388.109C345.142 388.374 345.891 389.461 346.772 391.375C347.652 393.289 349.171 394.815 351.316 396.021C353.461 397.226 355.249 397.59 356.643 397.174C358.138 396.69 359.508 395.833 360.629 394.68C361.912 393.41 362.761 391.745 363.036 389.953C363.372 388.056 364.338 385.535 365.935 382.389C367.546 379.24 368.177 377.485 367.862 377.094C367.547 376.703 368.356 373.986 370.288 368.942C372.221 363.899 372.832 361.101 372.097 360.529L371.012 359.68L372.49 358.785C373.478 358.189 373.86 357.589 373.632 356.976C373.521 356.684 373.5 356.36 373.571 356.047C373.641 355.735 373.801 355.448 374.028 355.225C374.268 354.944 374.512 354.665 374.75 354.388L374 354.444L373.249 354.504L374.085 352.568L374.563 353.153L375.034 353.742L374.841 352.509C374.781 352.091 374.81 351.66 374.926 351.247C375.042 350.834 375.243 350.449 375.513 350.118C376.092 349.342 376.166 348.608 375.734 347.916C375.303 347.223 375.389 346.126 375.992 344.624L376.973 342.356L375.745 341.826L377.757 338.85C379.096 336.871 379.549 335.538 379.124 334.84C378.7 334.143 378.723 333.518 379.209 332.954C379.437 332.732 379.597 332.445 379.668 332.132C379.739 331.819 379.717 331.495 379.605 331.203L379.267 330.293L380.163 329.911C380.76 329.659 380.971 328.601 380.802 326.74C380.715 325.809 380.631 324.878 380.551 323.95L381.303 323.89L382.059 323.832C382.037 323.313 382.018 322.796 382.002 322.274C381.965 321.239 382.737 318.891 384.319 315.229L386.68 309.765L388.523 310.561C389.746 311.09 390.995 310.736 392.258 309.493C393.521 308.251 394.513 307.91 395.241 308.485C395.626 308.77 396.073 308.956 396.548 309.027C397.022 309.098 397.509 309.053 397.972 308.895C399.07 308.605 399.899 307.805 400.456 306.517L401.284 304.601L401.923 305.647L402.568 306.69L402.679 305.589C402.719 305.221 402.751 304.851 402.793 304.489L403.57 305.205C403.778 305.431 404.049 305.585 404.348 305.646C404.647 305.708 404.96 305.674 405.247 305.55C405.843 305.293 406.621 304.61 407.587 303.494C408.553 302.378 409.538 301.78 410.547 301.706C411.556 301.633 412.132 301.112 412.299 300.166C412.466 299.219 413.154 298.747 414.368 298.757C415.583 298.768 416.747 297.742 417.88 295.68C418.446 294.645 419.015 293.613 419.584 292.571L418.803 291.853L418.024 291.132L418.61 290.621C418.804 290.446 419.001 290.276 419.194 290.104L419.387 291.337L419.584 292.571L420.06 293.161L420.535 293.751L421.652 291.166L422.124 291.755C422.439 292.146 423.039 292.15 423.943 291.772C424.846 291.393 425.558 290.547 426.113 289.263C426.668 287.979 427.397 287.136 428.289 286.752C429.181 286.368 429.68 284.95 429.794 282.423C429.852 281.169 429.906 279.914 429.967 278.652L430.89 279.051C431.502 279.315 432.33 278.519 433.37 276.671C434.251 275.003 435.499 273.564 437.009 272.476C438.383 271.536 439.206 270.488 439.464 269.321C439.721 268.154 441.237 265.492 444.005 261.324C446.774 257.156 448.638 253.38 449.621 249.974ZM401.007 148.511L401.425 147.543L401.76 148.457L402.094 149.366L402.984 148.986L403.883 148.605L403.605 149.249C403.418 149.683 402.872 149.827 401.954 149.69L400.588 149.479L401.007 148.511ZM380.707 133.997C380.908 133.829 381.101 133.657 381.297 133.487L381.631 134.396L381.962 135.308L380.127 134.515C380.316 134.342 380.503 134.163 380.707 133.997ZM376.055 130.458L376.081 131.233L376.11 132.01L374.267 131.214L375.165 130.838L376.055 130.458ZM354.668 119.295L355.085 118.331L355.73 119.374L356.369 120.419L355.312 120.342L354.248 120.267L354.668 119.295ZM343.715 112.64L344.327 112.904L343.745 113.417L343.159 113.928L343.133 113.153L343.103 112.376L343.715 112.64ZM321.484 107.658L322.07 107.147C322.077 107.405 322.088 107.665 322.099 107.924L322.125 108.7L320.898 108.169C321.096 107.996 321.293 107.826 321.484 107.658ZM320.535 106.484L320.564 107.261L318.725 106.467L319.615 106.087L320.507 105.703C320.52 105.959 320.529 106.222 320.537 106.48L320.535 106.484ZM306.368 103.05L306.787 102.082L307.736 103.256L308.683 104.435L307.317 104.224L305.95 104.018L306.368 103.05ZM295.021 93.9367L295.941 94.334C296.227 94.4402 296.464 94.648 296.612 94.9217C296.76 95.1953 296.808 95.5174 296.75 95.8323L296.639 96.9334L295.552 96.0791C294.825 95.5104 294.557 95.0101 294.743 94.5808L295.021 93.9367ZM289.939 95.5864L290.226 94.9221L291.011 95.641L291.791 96.3623L290.731 96.2891L289.668 96.2142L289.939 95.5864ZM269.834 90.7449C270.027 90.5735 270.224 90.4037 270.418 90.2282L270.894 90.8182L271.365 91.4065L270.306 91.3333L269.248 91.256C269.469 91.0628 269.65 90.8864 269.846 90.7166L269.834 90.7449ZM266.852 87.534L268.253 88.5189C267.92 89.0144 267.584 89.5082 267.249 90.0078C266.58 91.0003 265.937 91.3636 265.322 91.0977L264.402 90.7004C264.688 90.3143 264.977 89.9298 265.267 89.5453C265.841 88.7715 266.018 88.0804 265.797 87.4722L265.46 86.5622L266.852 87.534ZM245.669 86.0238L246.397 85.1846L246.868 85.773L247.34 86.3613L246.142 86.608L244.943 86.8588C245.187 86.5797 245.427 86.2989 245.669 86.0238ZM244.53 83.609L245.449 84.0063L244.613 85.9424C244.443 85.4895 244.276 85.0324 244.112 84.5771L243.607 83.2101L244.53 83.609ZM198.74 82.6138L199.772 81.906L200.411 82.9514L201.052 83.9927L200.271 83.2754C200.064 83.0481 199.793 82.8935 199.494 82.832C199.195 82.7704 198.881 82.8048 198.594 82.9305L197.698 83.3126C198.046 83.0783 198.397 82.8359 198.74 82.6138ZM195.338 84.5905C195.728 84.2492 196.183 84.3161 196.704 84.8007L197.485 85.518L196.118 85.3118L194.751 85.1056L195.338 84.5905ZM156.438 86.1828L157.05 86.4471L156.464 86.9581C156.269 87.1336 156.073 87.3034 155.88 87.4749C155.869 87.2153 155.862 86.9574 155.852 86.6938L155.823 85.9168L156.438 86.1828ZM125.008 85.6384L126.49 84.7452L125.371 87.3335L123.528 86.5373L125.008 85.6384ZM106.854 93.1232L107.47 93.3891L106.884 93.9002L106.296 94.4153C106.291 94.1533 106.279 93.8938 106.272 93.6359C106.265 93.378 106.25 93.1168 106.243 92.8589L106.854 93.1232ZM81.1738 105.402L81.6455 105.99L80.2782 105.784L78.9127 105.574L79.8065 105.196C80.3998 104.943 80.8549 105.01 81.1738 105.402ZM153.039 253.307L151.78 251.994L153.619 252.788L154.456 250.852C154.427 251.479 154.402 252.107 154.371 252.738L154.283 254.623L153.039 253.307ZM156.397 253.988L155.809 254.503C155.849 254.136 155.885 253.767 155.921 253.398C155.957 253.029 155.995 252.666 156.035 252.299L156.507 252.887L156.979 253.476L156.397 253.988ZM170.01 267.917L168.952 267.839C169.145 267.668 169.342 267.498 169.538 267.328L170.12 266.815L170.598 267.401L171.069 267.99L170.01 267.917ZM189.628 272.173L190.662 271.471L191.692 270.767L190.465 270.237L191.303 268.296L192.702 269.285L194.101 270.274C193.861 270.555 193.619 270.83 193.379 271.111L192.653 271.946L193.432 272.667L194.213 273.385L191.927 272.781L189.628 272.173ZM191.595 280.3L190.536 280.227L191.57 279.525L192.6 278.821C192.607 279.079 192.618 279.338 192.629 279.598C192.64 279.857 192.646 280.119 192.653 280.377L191.595 280.3ZM213.239 285.806L212.456 285.083C212.7 284.804 212.942 284.529 213.182 284.248C213.422 283.967 213.666 283.688 213.908 283.413L213.963 284.965L214.02 286.523L213.239 285.806ZM241.627 294.226L240.288 294.801C240.575 294.411 240.864 294.027 241.154 293.642C241.443 293.258 241.73 292.867 242.016 292.481L242.492 293.071L242.965 293.656L241.627 294.226ZM258.611 291.985L256.236 293.256L256.206 292.479C256.188 291.962 255.561 291.436 254.338 290.908C252.842 290.326 251.249 290.028 249.632 290.028C247.719 289.966 246.501 289.699 245.98 289.214L245.198 288.497C244.956 288.772 244.716 289.053 244.472 289.332C244.228 289.611 243.99 289.888 243.75 290.169L244.974 290.697L243.774 290.948C242.976 291.113 242.353 290.587 241.907 289.373C241.463 288.161 240.987 287.571 240.487 287.61L239.731 287.668C239.742 287.928 239.753 288.187 239.761 288.445L239.788 289.226C239.632 289.029 239.475 288.831 239.313 288.636L238.841 288.048C238.805 288.417 238.765 288.784 238.731 289.149C238.696 289.514 238.655 289.885 238.615 290.252L235.537 288.922C235.733 288.753 235.932 288.579 236.125 288.407L236.711 287.896L235.623 287.042C234.895 286.474 233.008 285.787 229.963 284.981C226.917 284.174 225.192 283.94 224.788 284.278C224.4 284.62 223.637 284.419 222.501 283.675L220.802 282.556L220.244 283.848L219.317 282.698C218.686 281.909 218.073 281.645 217.478 281.903C216.882 282.162 215.608 281.739 213.656 280.636C211.696 279.537 208.332 278.338 203.563 277.04L196.395 275.097L196.954 273.804L195.115 273.01L195.703 272.495C196.091 272.153 196.806 272.462 197.849 273.422L199.408 274.865C199.344 274.453 199.28 274.041 199.211 273.631L199.017 272.399L205.765 275.314C210.262 277.257 212.957 278.038 213.851 277.659C214.746 277.28 215.917 277.657 217.365 278.793C218.816 279.929 220.75 280.508 223.166 280.53L226.802 280.568C226.558 280.847 226.318 281.128 226.074 281.407C225.83 281.686 225.592 281.963 225.348 282.242L225.964 282.508C226.602 282.741 227.265 282.899 227.943 282.978C228.391 283.047 228.853 283.009 229.293 282.866C229.733 282.723 230.139 282.479 230.482 282.153C230.871 281.811 231.264 281.472 231.655 281.127L232.157 282.492C232.49 283.405 233.818 283.979 236.142 284.214C238.466 284.449 239.87 284.29 240.353 283.736C240.597 283.456 240.837 283.176 241.079 282.901L239.712 282.694L238.346 282.484L238.932 281.973C239.323 281.628 239.88 281.743 240.611 282.314L241.698 283.168C241.413 283.554 241.123 283.939 240.836 284.329C240.549 284.719 240.257 285.098 239.972 285.484L244.246 287.331L245.082 285.395L245.724 286.436L246.363 287.481C246.607 287.202 246.847 286.921 247.089 286.646L247.817 285.807L248.316 287.176C248.649 288.083 250.843 288.902 254.897 289.635L260.976 290.728L258.611 291.985ZM244.925 280.708L246.184 282.021C247.025 282.893 247.404 283.698 247.323 284.435C247.287 284.804 247.251 285.173 247.213 285.536L246.074 283.122L244.925 280.708ZM264.047 296.256C263.803 296.536 263.563 296.816 263.321 297.091C263.356 296.727 263.396 296.359 263.432 295.99C263.468 295.621 263.506 295.258 263.546 294.891L264.769 295.42C264.53 295.71 264.282 295.988 264.047 296.256ZM267.265 297.262L266.342 296.863L266.902 295.567L267.547 296.61L268.188 297.651L267.265 297.262ZM272.785 295.432C272.094 295.902 270.073 295.539 266.705 294.343L261.657 292.542L262.214 291.254L267.735 293.639L268.293 292.347L273.818 294.734L272.785 295.432ZM296.683 296.557L295.955 297.396C295.995 297.029 296.031 296.66 296.071 296.293C296.111 295.926 296.146 295.561 296.182 295.192L297.413 295.724C297.15 296.005 296.906 296.284 296.668 296.56L296.683 296.557ZM310.402 308.613C310.158 308.428 309.988 308.157 309.921 307.848C309.855 307.539 309.896 307.211 310.037 306.922L310.455 305.954L310.82 307.645L311.181 309.335L310.402 308.613ZM312.156 311.294L311.237 310.897C311.522 310.511 311.814 310.122 312.099 309.736C312.385 309.35 312.676 308.961 312.965 308.577L313.019 310.133C313.037 310.651 313.054 311.172 313.076 311.691L312.156 311.294ZM324.507 331.569L323.443 331.494L324.002 330.202L324.785 330.925L325.566 331.642L324.507 331.569ZM327.004 338.416C327.348 338.18 327.699 337.948 328.042 337.716L329.073 337.008C329.033 337.375 328.997 337.744 328.957 338.111C328.917 338.479 328.883 338.843 328.847 339.212L327.004 338.416ZM330.126 358.155L329.495 357.883L330.332 355.947L330.525 357.179L330.719 358.411L330.126 358.155ZM400.464 298.109C398.267 298.693 396.736 299.435 395.851 300.332C394.966 301.228 393.649 301.783 391.838 302.044C390.027 302.305 388.975 302.215 388.66 301.824L388.184 301.234C388.925 300.915 389.673 300.599 390.423 300.279C391.915 299.642 392.65 299.065 392.627 298.549C392.612 298.288 392.608 298.032 392.593 297.77L393.378 298.489C393.896 298.972 394.606 299.02 395.496 298.64C396.386 298.26 396.769 297.657 396.64 296.837L396.446 295.604L397.532 296.453C398.26 297.021 399.367 296.988 400.852 296.354L403.091 295.399L403.428 296.309L403.762 297.217L400.464 298.109ZM393.434 295.836C393.68 295.562 393.916 295.28 394.164 295.002C394.411 294.725 394.646 294.447 394.882 294.164C394.85 294.535 394.814 294.904 394.775 295.267C394.737 295.63 394.699 296.003 394.665 296.368L393.434 295.836ZM406.375 294.53L405.759 294.264L407.159 291.023L407.071 292.908L406.99 294.796L406.375 294.53ZM416.891 292.94L416.303 293.455C416.288 293.194 416.286 292.934 416.271 292.673L416.246 291.897L417.473 292.427L416.891 292.94ZM439.84 259.173L439.228 258.909C439.099 259.492 438.966 260.074 438.836 260.662C438.576 261.823 437.999 262.598 437.109 262.978C436.219 263.357 435.44 264.304 434.786 265.819C434.131 267.334 433.924 268.384 434.147 268.989L434.478 269.902L431.051 271.103C428.761 271.902 427.403 273.358 426.977 275.471C426.763 276.527 426.556 277.587 426.34 278.647L425.249 277.791L424.162 276.937C423.785 277.543 423.399 278.141 423.023 278.747C422.253 279.948 420.084 281.323 416.518 282.834C412.953 284.346 411.131 285.486 411.048 286.239C411.014 286.604 410.974 286.971 410.938 287.34L410.298 286.294L409.653 285.251L408.037 286.476C406.954 287.282 406.106 287.564 405.495 287.3C404.883 287.036 403.383 287.412 401.004 288.426C398.625 289.441 396.717 289.896 395.311 289.812C393.904 289.728 392.26 290.416 390.4 291.91C388.54 293.404 386.906 294.102 385.495 294.007C384.084 293.911 382.232 297.067 379.943 303.485C377.654 309.903 376.488 314.008 376.46 315.775C376.431 317.541 376.121 318.82 375.544 319.595C374.967 320.369 374.893 321.101 375.319 321.795C375.745 322.489 375.429 323.506 374.372 324.832C373.315 326.159 372.937 327.024 373.256 327.416C373.575 327.809 373.262 329.082 372.333 331.233L370.933 334.473L371.994 334.552L373.054 334.626L371.742 335.982C370.867 336.885 370.672 338.461 371.156 340.708C371.64 342.955 371.144 344.663 369.668 345.833L367.468 347.565L368.553 348.413L369.64 349.267L368.024 350.492C366.941 351.298 366.569 352.16 366.91 353.072C367.251 353.984 367.167 354.717 366.683 355.277C366.441 355.552 366.201 355.833 365.957 356.112L366.736 356.833L367.518 357.55C367.174 357.786 366.83 358.022 366.484 358.252C365.796 358.724 365.324 359.542 365.067 360.707C364.811 361.871 364.882 362.543 365.283 362.723L365.902 362.99L365.005 363.367C364.41 363.624 363.742 364.609 362.993 366.343C362.242 368.086 361.697 369.911 361.371 371.776C361.212 372.726 361.043 373.677 360.874 374.627L362.238 374.832L363.605 375.038C363.365 375.319 363.121 375.598 362.883 375.875C362.644 376.152 362.395 376.433 362.155 376.714L361.823 375.802L361.486 374.892C361.4 375.364 361.319 375.838 361.232 376.315C361.144 376.792 361.064 377.262 360.987 377.738L359.759 377.208L358.783 379.468C358.132 380.974 358.016 382.078 358.442 382.772C358.868 383.465 358.51 384.589 357.354 386.147C356.197 387.704 355.314 388.332 354.698 388.066C354.083 387.8 353.062 385.956 351.616 382.519C350.17 379.082 349.058 377.198 348.242 376.846C347.427 376.493 347.038 375.691 347.099 374.429C347.161 373.167 346.572 372.279 345.349 371.75C344.125 371.222 343.336 370.501 343.005 369.589C342.838 369.172 342.757 368.721 342.766 368.264C342.775 367.806 342.875 367.352 343.058 366.93L343.616 365.637L342.253 365.433L340.886 365.227L341.919 364.525L342.949 363.821L342.166 363.098L341.39 362.378L341.973 361.865C342.364 361.52 341.872 360.418 340.498 358.546C339.125 356.674 338.348 354.806 338.18 352.945C338.012 351.084 337.51 349.719 336.676 348.849C335.842 347.979 335.081 346.371 334.398 344.019C333.716 341.667 333.117 340.529 332.613 340.566L331.857 340.624C332.101 340.344 332.341 340.064 332.583 339.789C333.068 339.229 332.669 337.906 331.385 335.82C330.101 333.733 329.542 332.21 329.708 331.25C329.803 330.817 329.775 330.37 329.625 329.963C329.476 329.557 329.213 329.209 328.869 328.965L327.785 328.112C327.789 328.368 327.804 328.629 327.811 328.887L327.839 329.668L326.612 329.138C326.944 328.643 327.281 328.149 327.616 327.649C328.285 326.657 328.23 325.101 327.45 322.982C326.67 320.864 325.825 319.731 324.914 319.584L323.551 319.38L324.109 318.088C324.48 317.229 324.244 316.358 323.406 315.487C322.569 314.615 322.233 313.701 322.4 312.754C322.567 311.808 321.593 309.339 319.42 305.334C317.248 301.328 316.479 298.722 316.941 297.653L317.641 296.033L315.664 295.558C314.338 295.245 313.57 294.783 313.347 294.178L313.014 293.27C312.721 293.652 312.435 294.039 312.146 294.423C311.856 294.807 311.569 295.198 311.284 295.584L310.782 294.218C310.619 293.763 310.445 293.308 310.277 292.851L309.695 293.364C309.303 293.708 307.072 293.256 303.003 292.011C299.666 290.942 296.255 290.11 292.792 289.522C290.063 289.112 288.353 289.14 287.661 289.607L286.627 290.309C286.623 290.053 286.608 289.792 286.601 289.534C286.586 289.011 285.964 288.486 284.735 287.958C283.552 287.434 282.24 287.267 280.944 287.474C279.766 287.703 278.565 287.458 277.588 286.788C276.655 286.132 275.995 285.975 275.609 286.318C275.22 286.659 274.357 286.416 273.015 285.581C271.673 284.747 270.568 284.779 269.694 285.68C268.821 286.581 268.496 287.335 268.718 287.94L269.055 288.85L267.655 287.865L266.256 286.876C266.652 286.793 267.057 286.713 267.455 286.626C268.256 286.462 268.695 286.011 268.771 285.271C268.847 284.532 268.427 284.094 267.512 283.958L266.148 283.754C266.105 284.119 266.072 284.49 266.034 284.853L265.922 285.958L264.999 285.559C264.687 285.416 264.42 285.19 264.224 284.903C264.027 284.616 263.909 284.278 263.88 283.922L263.686 282.69L262.487 282.941C261.686 283.104 259.502 282.544 255.936 281.259C252.37 279.975 250.492 279.546 250.301 279.973L250.021 280.621L247.403 279.105L244.779 277.592L244.22 278.884L242.381 278.09C241.153 277.559 239.908 277.915 238.646 279.158C237.385 280.401 236.446 280.889 235.831 280.623L234.908 280.225L236.111 279.975C236.908 279.81 237.29 279.211 237.251 278.171C237.212 277.13 236.89 276.481 236.271 276.214L235.347 275.815C235.207 276.139 235.067 276.463 234.927 276.787L234.509 277.755L234.144 276.064C233.907 274.936 232.774 274.192 230.744 273.831C228.715 273.47 227.312 273.629 226.534 274.309L225.36 275.335C225.649 274.951 225.937 274.561 226.226 274.176C226.516 273.792 226.803 273.401 227.092 273.017C226.692 273.099 226.291 273.18 225.893 273.268C225.092 273.431 223.46 272.981 220.998 271.917C218.536 270.853 216.986 270.57 216.348 271.066C215.656 271.537 214.794 271.294 213.754 270.33L212.193 268.891L211.076 271.476L209.849 270.945C210.136 270.555 210.426 270.171 210.715 269.786C211.004 269.402 211.292 269.012 211.577 268.625L210.38 268.872L209.18 269.123C209.377 268.953 209.569 268.782 209.768 268.608L210.35 268.095L209.738 267.831C209.496 267.745 209.238 267.712 208.979 267.732C208.72 267.752 208.466 267.826 208.231 267.949C207.638 268.202 202.852 266.645 193.873 263.278C184.894 259.912 180.312 258.443 180.127 258.872L179.847 259.52L178.759 258.666C178.033 258.097 177.475 257.982 177.08 258.325L176.498 258.838C176.487 258.578 176.476 258.319 176.469 258.061C176.449 257.543 174.655 256.64 171.088 255.352C167.521 254.063 164.574 253.303 162.249 253.071C159.918 252.829 158.645 252.406 158.429 251.8C158.213 251.194 156.669 250.272 153.798 249.035C150.936 247.798 149.207 247.308 148.613 247.563C148.02 247.817 147.404 247.551 146.774 246.769C146.144 245.987 145.422 245.671 144.627 245.841L143.426 246.086L143.4 245.311C143.382 244.794 142.657 244.221 141.224 243.607C139.791 242.992 137.664 242.578 134.837 242.38L130.601 242.083L131.717 239.499L129.596 239.347C128.182 239.25 127.366 238.898 127.142 238.287C126.917 237.675 126.353 237.311 125.441 237.172L124.074 236.966L124.354 236.318C124.539 235.888 120.422 233.344 112.002 228.683C103.582 224.023 99.1022 221.195 98.5617 220.199C98.3111 219.716 97.9342 219.319 97.4722 219.051C97.0103 218.784 96.4812 218.656 95.9433 218.683L94.1244 218.666C94.3228 218.492 94.5155 218.321 94.7122 218.151L95.2982 217.64L94.6827 217.374C94.4867 217.287 94.2676 217.264 94.054 217.308C93.8404 217.352 93.6421 217.461 93.4849 217.621C93.2883 217.791 93.0955 217.962 92.8971 218.136L92.7037 216.904C92.5759 216.079 91.0151 214.637 88.0213 212.578C85.0274 210.519 83.6245 209.272 83.8123 208.837L84.0906 208.193L82.8928 208.44L81.6933 208.69C81.7295 208.321 81.7694 207.954 81.8056 207.585C81.8417 207.216 81.88 206.853 81.9161 206.484L81.1644 206.544L80.4127 206.604C80.4488 206.235 80.4849 205.866 80.5232 205.503C80.598 204.766 80.1784 204.328 79.2643 204.19L77.8971 203.983L78.4831 203.472C78.6815 203.299 78.8742 203.127 79.0709 202.957L78.1514 202.56C77.8397 202.418 77.5723 202.193 77.3757 201.906C77.1792 201.62 77.0603 201.282 77.0308 200.927C76.903 200.103 76.333 199.732 75.3318 199.809L73.8246 199.926C73.8607 199.557 73.9007 199.19 73.9351 198.825C73.9695 198.46 74.0112 198.089 74.0456 197.724L72.8478 197.971L71.6504 198.228L72.7652 195.647L70.7863 195.177C69.4644 194.862 68.8888 194.229 69.0596 193.277C69.1412 192.803 69.2228 192.329 69.3083 191.856L68.4145 192.234L67.5298 192.602C67.5642 192.237 67.6042 191.87 67.6403 191.501C67.714 190.767 66.7655 189.591 64.7951 187.974C62.8246 186.357 61.7294 185.243 61.5094 184.632C61.3991 184.339 61.3775 184.015 61.4474 183.703C61.5174 183.39 61.6756 183.103 61.9017 182.878L62.6277 182.043L61.4005 181.513C60.5849 181.161 60.2114 180.616 60.2799 179.88C60.3484 179.144 59.9282 178.708 59.0193 178.571C58.1071 178.432 57.6826 177.734 57.7347 176.483C57.7869 175.232 57.5153 174.465 56.8959 174.198L55.9764 173.801C56.2165 173.52 56.4586 173.245 56.6986 172.964C57.1825 172.404 56.7907 171.345 55.5284 169.776C54.2662 168.207 53.774 167.095 54.0505 166.455C54.327 165.815 54.0349 164.526 53.1586 162.624C52.2822 160.721 52.0811 159.221 52.5466 158.144L53.2467 156.524L52.3464 156.135C51.7309 155.869 51.721 154.205 52.3167 151.142C52.9125 148.08 53.0708 145.466 52.7919 143.301C52.5091 141.138 53.1516 137.967 54.7191 133.79C56.2866 129.613 57.4111 127.288 58.0926 126.817C58.7843 126.347 59.2554 125.531 59.517 124.366C59.7786 123.2 60.2608 122.644 60.9652 122.694C61.6697 122.743 62.2502 121.97 62.6973 120.375C63.1444 118.781 63.8666 117.944 64.8733 117.865L66.375 117.749C66.3677 117.491 66.3566 117.232 66.3511 116.97L66.3216 116.193L67.2411 116.59C67.8566 116.856 68.5912 116.279 69.4449 114.86C70.547 113.171 71.9263 111.689 73.5169 110.486C75.3794 108.993 76.9169 108.253 78.1295 108.264C79.5142 108.215 80.8675 107.73 82.0083 106.873C83.3804 105.937 84.061 105.208 84.0426 104.69C84.0242 104.173 85.167 103.768 87.4715 103.485C89.776 103.202 91.1631 102.527 91.6339 101.438L92.3339 99.8176L93.1151 100.535L93.8946 101.256C93.8835 100.997 93.8762 100.739 93.8668 100.475L93.8412 99.6998L97.6189 99.4094L101.397 99.119L101.199 97.885L101.008 96.6486L102.547 97.3135C103.57 97.7556 104.324 97.7016 104.808 97.1416C105.292 96.5817 106.089 96.4166 107.205 96.6441C108.321 96.8716 109.77 96.6035 111.555 95.8417C113.341 95.0798 114.167 94.288 114.039 93.4637C113.97 93.054 113.906 92.6418 113.842 92.2297L114.318 92.8197C114.633 93.2092 115.239 93.2162 116.135 92.8405L117.474 92.2657L116.444 92.9695L115.412 93.6773L117.091 94.0181C118.343 94.2394 119.64 94.1397 120.869 93.7277C122.263 93.3112 123.248 92.7127 123.828 91.9397C124.114 91.5536 124.403 91.1692 124.691 90.779L123.852 92.7192L125.08 93.2494L126.48 90.009L126.509 90.786C126.526 91.3029 126.993 91.6326 127.908 91.775C128.824 91.9174 129.523 91.7083 130.005 91.1478C130.49 90.5883 131.243 90.5291 132.264 90.9702C132.786 91.1887 133.35 91.2929 133.92 91.2767C134.491 91.2604 135.057 91.124 135.583 90.8756C136.936 90.3441 138.385 90.1774 139.791 90.3916C141.412 90.5822 142.496 90.027 143.055 88.7349L143.891 86.7988L145.152 88.1077C145.99 88.9857 148.313 89.2235 152.121 88.8212C155.929 88.4188 157.918 87.745 158.089 86.7999C158.175 86.3273 158.258 85.8491 158.343 85.3765L159.149 86.8731C159.687 87.8747 161.412 88.1089 164.323 87.5757C167.131 87.038 169.986 86.9732 172.779 87.3839C175.511 87.7952 179.033 87.7836 183.345 87.349C187.657 86.9144 190.276 86.9376 191.204 87.4184L192.743 88.0833C192.732 87.8238 192.72 87.5642 192.715 87.3023L192.685 86.5253L197.093 87.2809L201.499 88.0212L201.137 86.3318L200.772 84.6407L201.893 86.2737L203.014 87.9067L204.414 84.6663L205.534 86.2992L206.655 87.9322C206.848 87.7607 207.044 87.5909 207.241 87.4212C207.632 87.0759 208.085 87.1467 208.604 87.6257L209.389 88.3446C209.471 87.8704 209.553 87.3962 209.638 86.9236C209.809 85.972 210.246 85.52 210.95 85.5677C211.658 85.619 212.02 85.9005 212.037 86.422L212.067 87.199L211.311 87.2571L210.559 87.3168L213.917 87.9985L217.275 88.6802L216.634 87.6389C216.429 87.3584 216.302 87.0246 216.263 86.6706C216.225 86.3167 216.277 85.9549 216.414 85.6215L216.834 84.6494L217.195 86.3388C217.439 87.4661 217.968 88.206 218.784 88.5584L220.011 89.0886L220.289 88.4446C220.476 88.0125 221.129 87.9102 222.248 88.1374L223.927 88.4782C223.965 88.115 224.001 87.7461 224.041 87.3789C224.081 87.0116 224.112 86.6451 224.152 86.2778L225.711 87.7204C226.751 88.6795 228.732 89.1506 231.652 89.1337C234.572 89.1167 236.189 89.3044 236.503 89.6966C236.819 90.0861 237.721 89.9646 239.208 89.332C240.696 88.6995 241.861 88.82 242.704 89.6938C243.542 90.5653 244.407 90.814 245.299 90.4302L246.637 89.8594L246.051 90.3705C245.856 90.546 245.659 90.7158 245.467 90.8872L246.386 91.2845C247.054 91.5543 247.793 91.6054 248.505 91.431C249.306 91.2676 249.789 90.7103 249.953 89.7592C250.039 89.2866 250.122 88.8083 250.208 88.3357L249.452 88.3938L248.7 88.4536L249.592 88.0698C250.189 87.8183 250.569 87.2134 250.736 86.2666C250.818 85.7924 250.905 85.3158 250.987 84.8415L251.766 85.5629C252.289 86.0449 252.26 86.6736 251.682 87.449C251.105 88.2237 250.927 88.9109 251.153 89.5181C251.379 90.1253 251.985 90.392 252.992 90.3127L254.498 90.1989L253.464 90.901L252.35 91.5877L252.822 92.1761C253.14 92.5686 254.049 92.7063 255.556 92.5885L257.813 92.415L257.48 91.5067C257.37 91.2139 257.348 90.8903 257.418 90.5777C257.488 90.2651 257.646 89.9779 257.872 89.7535C258.114 89.4784 258.354 89.1976 258.598 88.9184L257.231 88.7122L255.864 88.506L256.619 88.4479C257.12 88.4094 257.407 88.0192 257.481 87.2871C257.521 86.9198 257.558 86.5509 257.592 86.1861L258.265 88.0101C258.709 89.2212 259.693 90.0292 261.217 90.4343L263.503 91.0378L261.722 91.8013C261.126 92.0533 260.531 92.3073 259.936 92.5631L260.27 93.4714C260.381 93.7742 260.496 94.0786 260.605 94.3855L261.163 93.0934L262.564 94.0783C263.495 94.7351 264.245 94.6794 264.825 93.9064C265.111 93.5203 265.402 93.1318 265.687 92.7456C265.902 93.0933 266.117 93.4409 266.327 93.791C266.757 94.4863 267.938 95.1232 269.87 95.7017L272.773 96.5712L272.549 94.552C272.48 93.8812 272.407 93.2087 272.33 92.5346L273.417 93.3889L274.504 94.2432C274.262 94.5183 274.022 94.7991 273.778 95.0782C273.534 95.3574 273.296 95.6342 273.056 95.915L274.279 96.4436C274.672 96.6186 275.112 96.6649 275.54 96.5765C275.968 96.488 276.366 96.2689 276.681 95.9477C277.46 95.2625 278.632 95.6404 280.195 97.0814L282.535 99.2413L282.797 98.6338C282.984 98.2004 283.53 98.0566 284.444 98.1919C285.358 98.3272 287.445 99.1086 290.715 100.522C293.985 101.934 295.968 102.407 296.656 101.935L297.69 101.233L297.131 102.525L300.349 103.53C302.485 104.198 303.797 104.256 304.281 103.696C304.765 103.136 304.847 102.662 304.532 102.271L304.058 101.687L304.95 101.303L305.849 100.903C305.674 101.592 305.498 102.285 305.32 102.972C304.964 104.353 305.549 105.247 307.075 105.653C308.6 106.059 309.558 106.09 309.947 105.745L310.53 105.233L310.867 106.143L311.199 107.055L312.315 104.471L313.296 106.428L314.278 108.381C314.567 107.996 314.857 107.612 315.142 107.226C315.719 106.451 315.852 105.869 315.535 105.472L315.063 104.884L316.708 104.446C317.802 104.155 318.494 103.684 318.772 103.04L319.19 102.072L320.136 103.245L321.085 104.419L319.717 104.213C318.81 104.074 317.924 104.714 317.062 106.132C316.632 106.841 316.207 107.551 315.778 108.26L325.568 111.721C332.091 114.029 336.077 115.751 337.525 116.887C338.973 118.022 340.805 118.557 343.022 118.493L346.338 118.392L345.587 118.452L344.835 118.512L344.861 119.287C344.878 119.804 346.068 120.701 348.432 121.979L351.97 123.892L352.808 121.952L354.511 123.072L356.21 124.191L356.766 122.903L359.844 124.233C359.551 124.615 359.269 125.003 358.974 125.39C358.679 125.777 358.399 126.161 358.11 126.545L361.766 127.361C364.201 127.897 365.483 128.577 365.613 129.403C365.741 130.227 366.619 130.731 368.236 130.92C369.852 131.109 370.668 131.462 370.686 131.979C370.705 132.496 371.388 133.176 372.723 134.008C374.057 134.839 375.313 134.742 376.5 133.717L378.252 132.177C377.827 132.887 377.398 133.595 376.972 134.305C376.546 135.016 376.117 135.724 375.688 136.433L380.315 139.196C383.402 141.046 385.439 141.671 386.425 141.072C386.916 140.77 387.41 140.474 387.899 140.175L384.821 138.846L385.38 137.554C385.552 137.142 385.837 136.788 386.199 136.536C386.56 136.285 386.981 136.148 387.409 136.143L388.912 136.023C388.724 136.196 388.523 136.364 388.329 136.54C387.939 136.881 388.01 137.551 388.548 138.557C389.086 139.563 389.113 140.335 388.631 140.891C388.149 141.447 388.073 142.183 388.408 143.097L388.909 144.462L389.468 143.17C389.841 142.306 390.669 141.513 391.951 140.792L393.875 139.7C393.635 139.981 393.393 140.256 393.153 140.537L392.427 141.372L394.269 142.168L393.991 142.813C393.869 143.054 393.702 143.269 393.501 143.446C393.299 143.622 393.067 143.756 392.817 143.839C392.519 143.969 392.222 144.096 391.922 144.221C392.17 143.943 392.41 143.662 392.652 143.387C392.894 143.112 393.136 142.827 393.374 142.551L391.535 141.756L390.977 143.048C390.606 143.907 390.745 144.991 391.401 146.293C392.057 147.596 393.24 148.492 394.968 148.983C396.533 149.372 397.932 150.242 398.983 151.482C399.931 152.661 400.805 153.163 401.606 153L402.803 152.753L402.997 153.986C403.13 154.807 403.798 155.226 405.009 155.235L406.826 155.256C406.741 155.728 406.661 156.208 406.576 156.681C406.49 157.153 406.409 157.628 406.325 158.106C406.565 157.825 406.809 157.546 407.049 157.265C407.289 156.984 407.531 156.709 407.775 156.43L408.722 157.608C408.967 157.971 409.329 158.23 409.746 158.34C410.163 158.45 410.61 158.405 411.009 158.212L412.347 157.641L410.674 161.513L412.039 161.723C412.95 161.857 414.307 163.21 416.112 165.781C417.917 168.352 419.273 169.704 420.18 169.836C421.091 169.976 421.825 170.805 422.384 172.322C422.94 173.836 423.776 174.711 424.906 174.94L426.583 175.284L426.026 176.573L427.088 176.651C427.792 176.699 428.212 177.135 428.348 177.96C428.476 178.785 429.154 179.457 430.381 179.987C431.608 180.518 432.119 181.248 431.969 182.207C431.82 183.166 432.657 184.547 434.535 186.382C436.412 188.217 437.276 189.864 437.12 191.344C436.964 192.825 437.307 193.723 438.123 194.075C438.938 194.427 439.314 194.974 439.243 195.708C439.207 196.077 439.167 196.444 439.133 196.809L440.194 196.888C440.9 196.934 441.221 197.586 441.177 198.841C441.132 200.095 441.4 200.86 442.015 201.126C442.631 201.392 443.475 203.031 444.601 206.088C445.727 209.146 446.362 211.574 446.527 213.434C446.692 215.293 447.242 216.554 448.169 217.21L449.569 218.195L448.399 219.222C447.618 219.91 447.561 221.167 448.227 222.993C448.893 224.819 448.538 229.009 447.164 235.565C445.788 242.123 445.258 245.598 445.572 245.99C445.887 246.382 445.05 248.318 443.063 251.798C441.073 255.284 440.142 257.437 440.271 258.259C440.335 258.671 440.401 259.079 440.472 259.494L439.84 259.173Z" fill="white"/>
</svg>
