<svg width="347" height="103" viewBox="0 0 347 103" fill="none" xmlns="http://www.w3.org/2000/svg">
<rect x="11" y="10" width="326" height="93" fill="#A3FF5E"/>
<line x1="17" y1="102.577" x2="336" y2="102.577" stroke="white" stroke-width="0.845266"/>
<path d="M19.9067 2.74369C9.23128 33.5167 4.04074 66.2761 3.74644 99.4769C3.69293 104.175 9.92692 104.175 9.92692 99.4769C10.0072 66.6229 14.3148 34.9986 22.2076 3.50041C22.6625 1.70321 20.4418 1.07262 19.8799 2.74369H19.9067Z" fill="white"/>
<path d="M24.4548 2.7424C17.0168 33.9884 13.057 66.8108 7.813 98.6558C7.14412 102.629 12.3614 104.3 12.9768 100.327C17.9533 68.1666 24.4281 35.7225 27.2106 3.18382C27.3711 1.29203 24.8829 1.00827 24.4548 2.7424Z" fill="white"/>
<path d="M14.9566 9.42777C122.379 9.86919 229.775 9.08095 337.251 7.63058C341.425 7.56752 341.425 -0.0626707 337.251 0.000388717C229.748 1.79758 122.352 4.19384 14.9566 7.85129C14.1004 7.85129 14.1004 9.42777 14.9566 9.42777Z" fill="white"/>
<path d="M7.25074 19.1382C63.1694 21.7552 119.409 18.4445 175.355 17.0257C231.38 15.6069 287.433 14.5664 343.458 12.8953C346.856 12.8007 346.883 6.55784 343.458 6.65243C287.433 7.88209 231.38 9.67928 175.355 11.1612C119.409 12.6115 63.0624 12.2017 7.25074 17.6563C6.44808 17.7194 6.42133 19.1067 7.25074 19.1382Z" fill="white"/>
<path d="M335.245 2.99622C329.974 28.0623 329.011 53.8537 329.814 79.5819C329.894 82.388 333.693 82.325 333.479 79.5819C331.633 53.8852 333.64 28.9767 337.065 3.59528C337.252 2.17644 335.513 1.54585 335.218 2.99622H335.245Z" fill="white"/>
<path d="M337.359 2.74281C332.864 30.5205 333.239 58.6765 335.005 86.7695C335.219 90.2693 339.473 89.6702 339.071 86.1074C335.861 58.3297 337.172 30.8358 339.446 3.05811C339.553 1.6708 337.573 1.32398 337.359 2.71128V2.74281Z" fill="white"/>
<path d="M326.87 6.52661C323.151 33.3584 323.392 61.4514 324.408 88.5354C324.542 92.0037 329.224 91.9406 328.957 88.5354C326.977 61.073 327.806 34.1782 328.127 6.71579C328.127 5.86449 326.977 5.64378 326.843 6.52661H326.87Z" fill="white"/>
<path d="M1.09681 99.224C27.4241 102.692 54.3399 101.147 80.7742 100.58C108.225 99.9807 135.649 98.9717 163.074 97.5529C216.986 94.7468 271.058 91.2154 324.729 84.8464C328.769 84.3735 328.876 76.9325 324.729 77.3108C270.844 82.2925 217.066 87.4319 163.074 90.3957C136.532 91.846 109.991 92.9811 83.423 93.8324C56.0523 94.7152 28.2802 93.7693 1.07005 97.4268C0.106858 97.5529 0.106858 99.0663 1.07005 99.1924H1.09681V99.224Z" fill="white"/>
<path d="M1.01763 94.9045C114.005 96.8593 227.314 89.9858 340.302 88.1571C344.824 88.094 344.824 79.8017 340.302 79.8963C227.421 81.8827 113.551 81.4728 1.01763 92.4136C-0.320136 92.5397 -0.373647 94.9045 1.01763 94.936V94.9045Z" fill="white"/>
</svg>
