<svg width="49" height="43" viewBox="0 0 49 43" fill="none" xmlns="http://www.w3.org/2000/svg">
<path d="M42.6829 0.181641H6.31687C2.83988 0.181641 0.046875 2.97464 0.046875 6.45164V36.6046C0.046875 40.0816 2.83988 42.8746 6.31687 42.8746H42.6259C46.1029 42.8746 48.8959 40.0816 48.8959 36.6046V6.45164C48.9529 2.97464 46.1029 0.181641 42.6829 0.181641ZM21.9349 5.99564C23.3599 5.99564 24.4999 7.13564 24.4999 8.56064C24.4999 9.98564 23.3599 11.1256 21.9349 11.1256C20.5099 11.1256 19.3699 9.98564 19.3699 8.56064C19.3129 7.13564 20.5099 5.99564 21.9349 5.99564ZM14.6959 5.99564C16.1209 5.99564 17.2609 7.13564 17.2609 8.56064C17.2609 9.98564 16.1209 11.1256 14.6959 11.1256C13.2709 11.1256 12.1309 9.98564 12.1309 8.56064C12.0739 7.13564 13.2709 5.99564 14.6959 5.99564ZM7.96987 5.99564C9.39487 5.99564 10.5349 7.13564 10.5349 8.56064C10.5349 9.98564 9.39487 11.1256 7.96987 11.1256C6.54487 11.1256 5.40487 9.98564 5.40487 8.56064C5.40487 7.13564 6.54487 5.99564 7.96987 5.99564ZM45.5329 36.5476C45.5329 38.1436 44.2789 39.3976 42.6829 39.3976H6.31687C4.72087 39.3976 3.46687 38.1436 3.46687 36.5476V18.0226H45.4759V36.5476H45.5329Z" fill="white"/>
</svg>
